<svg width="180" height="55" xmlns="http://www.w3.org/2000/svg" fill="none">
 <defs>
  <clipPath id="petopia_logo">
   <path id="svg_1" d="m0.775,0l179.014,0l0,54.031l-179.014,0l0,-54.031z" fill="#fff"/>
  </clipPath>
 </defs>
 <g>
  <title>Layer 1</title>
  <g id="svg_2" clip-path="url(#petopia_logo)">
   <path id="svg_3" fill="#FFDA47" d="m11.523,48.021c-1.871,0.426 -2.686,0.625 -3.953,1.294c0.032,1.116 0.13,2.287 0.264,3.534c0.07,0.666 1.044,1.925 3.463,0.808c1.349,-0.622 0.673,-4.542 3.004,-6.248c0.024,-0.02 0.039,-0.042 0.064,-0.061c-1.14,0.285 -2.08,0.5 -2.842,0.673" clip-rule="evenodd" fill-rule="evenodd"/>
   <path id="svg_4" fill="#FFCD00" d="m61.457,28.502c-2.235,0.28 -9.11,0.333 -13.12,-2.38c0.098,0.175 0.193,0.35 0.305,0.523c2.336,3.583 5.932,5.354 8.812,6.23a19.848,19.848 0 0 0 3.845,-0.959c2.583,-0.935 1.585,-3.59 0.158,-3.414m-35.067,-20.265c3.245,-1.162 7.512,1.051 11.308,5.341c0.63,-0.258 1.263,-0.516 1.904,-0.772c-4.07,-4.57 -8.732,-6.917 -12.32,-5.633c-1.356,0.485 -2.425,1.448 -3.21,2.764c0.626,-0.783 1.394,-1.37 2.318,-1.7" clip-rule="evenodd" fill-rule="evenodd"/>
   <path id="svg_5" fill="#8D6EC8" d="m45.037,36.734c-0.519,3.013 -1.534,5.181 -3.038,6.035c-0.74,0.416 -1.55,0.48 -2.397,0.244c1.265,0.602 2.48,0.653 3.57,0.035c1.526,-0.865 2.6,-2.93 3.224,-5.766c-0.45,-0.184 -0.902,-0.368 -1.359,-0.548" clip-rule="evenodd" fill-rule="evenodd"/>
   <path id="svg_6" fill="#FFCD00" d="m38.248,9.554c-4.094,-4.407 -8.727,-6.513 -12.447,-5.045c-6.154,2.437 -7.444,13.728 -2.877,25.218c4.565,11.494 13.26,18.835 19.419,16.4c2.355,-0.933 3.99,-3.164 4.864,-6.204c0.297,-1.038 0.851,6.559 -5.445,8.894c-6.796,2.52 -16.323,-5.541 -21.402,-18.33c-5.085,-12.789 -3.74,-25.318 3,-27.982c4.429,-1.756 10.09,1.193 14.89,7.05" clip-rule="evenodd" fill-rule="evenodd"/>
   <path id="svg_7" fill="#FFDA47" d="m19.349,30.412c-3.391,-8.427 -3.638,-16.728 -1.15,-21.658c-3.134,1.692 -5.407,8.513 -3.035,17.735l-0.011,0.008c-3.608,1.967 -5.338,2.589 -9.048,1.712c-2.968,-0.705 -3.97,-3.731 -4.181,-3.319c-2.607,5.07 3.218,8.914 6.626,8.663c-0.235,5.413 -3.618,8.072 -5.13,10.134c-1.982,2.703 -2.36,6.362 -2.642,10.809c-0.048,0.722 0.518,2.17 2.566,1.225c1.141,-0.53 1.213,-4.8 3.28,-6.388c1.877,-1.442 2.629,-1.342 6.207,-2.592c4.062,-1.418 7.585,-3.966 8.08,-7.228c0.282,0.432 0.553,0.871 0.857,1.285c5.012,6.98 9.098,5.64 9.098,5.64c-5.118,-3.024 -8.901,-9.524 -11.517,-16.026" clip-rule="evenodd" fill-rule="evenodd"/>
   <path id="svg_8" fill="#FFCD00" d="m61.277,9.719c0.518,-1.628 1.478,-5.456 -0.794,-6.678c-1,-0.536 -2.346,1.863 -5.35,3.536c1.396,0.369 4.383,1.343 6.144,3.142" clip-rule="evenodd" fill-rule="evenodd"/>
   <path id="svg_9" fill="#FFCD00" d="m57.163,11.652a0.97,0.97 0 0 1 0.878,1.048a0.971,0.971 0 0 1 -1.934,-0.172a0.974,0.974 0 0 1 1.056,-0.876zm5.775,25.57c-2.698,-0.088 -10.057,-1.235 -13.995,-7.066c-3.78,-5.597 0.333,-11.728 6.97,-9.884c10.619,2.948 10.978,-2.729 10.851,-4.483c-3.144,-1.178 -5.348,-1.38 -5.748,-3.419c-0.865,-4.43 -4.939,-4.79 -6.143,-5.22c-0.183,-0.67 -1.166,-4.15 -2.97,-4.184c-0.949,-0.019 -0.112,3.565 -2.89,5.962c-8.794,3.354 -17.417,7.756 -24.942,12.2a42.847,42.847 0 0 0 2.16,7.695a42.308,42.308 0 0 0 3.569,7.192c1.876,-0.073 4.096,-0.006 6.995,0.142c9.776,0.458 16.95,5.745 25.54,4.133c2.543,-0.477 1.962,-3.022 0.603,-3.067l0,-0.001z" clip-rule="evenodd" fill-rule="evenodd"/>
  </g>
  <text font-style="normal" font-weight="bold" xml:space="preserve" text-anchor="start" font-family="'Montserrat'" font-size="32" stroke-width="0" id="svg_18" y="35.89999" x="68.99999" fill="#000000">PetDay</text>
 </g>
</svg>